<?xml version="1.0" encoding="UTF-8"?>
<svg xmlns="http://www.w3.org/2000/svg" xmlns:xlink="http://www.w3.org/1999/xlink" viewBox="0 0 512 512" width="512px" height="512px">
<g id="surface279220348">
<path style=" stroke:none;fill-rule:nonzero;fill:rgb(100%,100%,100%);fill-opacity:1;" d="M 422.398438 355.839844 C 440.777344 355.839844 455.679688 370.742188 455.679688 389.121094 C 455.679688 407.5 440.777344 422.398438 422.398438 422.398438 C 412.398438 422.398438 99.601562 422.398438 89.601562 422.398438 C 71.222656 422.398438 56.320312 407.5 56.320312 389.121094 C 56.320312 370.742188 71.222656 355.839844 89.601562 355.839844 C 99.601562 355.839844 412.398438 355.839844 422.398438 355.839844 Z M 422.398438 222.71875 C 440.777344 222.71875 455.679688 237.621094 455.679688 256 C 455.679688 274.378906 440.777344 289.28125 422.398438 289.28125 C 412.398438 289.28125 99.601562 289.28125 89.601562 289.28125 C 71.222656 289.28125 56.320312 274.378906 56.320312 256 C 56.320312 237.621094 71.222656 222.71875 89.601562 222.71875 C 99.601562 222.71875 412.398438 222.71875 422.398438 222.71875 Z M 422.398438 89.601562 C 440.777344 89.601562 455.679688 104.5 455.679688 122.878906 C 455.679688 141.257812 440.777344 156.160156 422.398438 156.160156 C 412.398438 156.160156 99.601562 156.160156 89.601562 156.160156 C 71.222656 156.160156 56.320312 141.257812 56.320312 122.878906 C 56.320312 104.5 71.222656 89.601562 89.601562 89.601562 C 99.601562 89.601562 412.398438 89.601562 422.398438 89.601562 Z M 422.398438 89.601562 "/>
</g>
</svg>
